<svg id="Layer_1" enable-background="new 0 0 511 511" height="512" viewBox="0 0 511 511" width="512" xmlns="http://www.w3.org/2000/svg"><g><path d="m175.5 123.75 80-80 80 80" fill="#d2fff6"/><path d="m255.5 43.75-12 12 68 68h24z" fill="#c0e5f8"/><path d="m175.5 123.75h160v224h-160z" fill="#ffdaae"/><g><g><path d="m215.5 268.25h16v15h-16z" fill="#fff"/></g><g><path d="m279.5 268.25h16v15h-16z" fill="#fff"/></g></g><path d="m175.5 235.75h160v16h-160z" fill="#ffb685"/><path d="m319.5 123.75h16v224h-16z" fill="#ffb685"/><path d="m239.5 203.75v-48h32v48" fill="#fff"/><path d="m351.5 347.75v-32h-32v32h-48v-32h-32v32h-48v-32h-32v32h-40v144h272v-144z" fill="#eb9382"/><path d="m119.5 347.75h16v144h-16z" fill="#e67f69"/><path d="m375.5 347.75h16v144h-16z" fill="#e67f69"/><path d="m223.5 491.75v-64c0-17.673 14.327-32 32-32 17.673 0 32 14.327 32 32v64" fill="#fff"/><path d="m119.5 171.75-48-80-48 80" fill="#d2fff6"/><path d="m71.5 91.75s-6.258 10.43-9 15l39 65h18z" fill="#c0e5f8"/><path d="m23.5 171.75h96v320h-96z" fill="#ffdaae"/><path d="m23.5 283.75h96v16h-96z" fill="#ffb685"/><path d="m103.5 171.75h16v320h-16z" fill="#ffb685"/><path d="m55.5 251.75v-48h32v48" fill="#fff"/><path d="m7.5 251.75h128v32h-128z" fill="#eb9382"/><path d="m111.5 251.75h24v32h-24z" fill="#e67f69"/><path d="m487.5 171.75-48-80-48 80" fill="#d2fff6"/><path d="m439.5 91.75s-6.258 10.43-9 15l39 65h18z" fill="#c0e5f8"/><path d="m391.5 171.75h96v320h-96z" fill="#ffdaae"/><path d="m391.5 283.75h96v16h-96z" fill="#ffb685"/><path d="m471.5 171.75h16v320h-16z" fill="#ffb685"/><g fill="#fff"><path d="m423.5 491.75v-48h32v48"/><path d="m55.5 491.75v-48h32v48"/><path d="m55.5 387.75v-48h32v48"/><path d="m423.5 251.75v-48h32v48"/></g><path d="m375.5 251.75h128v32h-128z" fill="#eb9382"/><path d="m479.5 251.75h24v32h-24z" fill="#e67f69"/><path d="m159.5 203.75h192v32h-192z" fill="#fff"/><path d="m159.5 203.75h192v32h-192z" fill="#fff"/><path d="m159.5 203.75h192v32h-192z" fill="#eb9382"/><path d="m327.5 203.75h24v32h-24z" fill="#e67f69"/><path d="m423.5 387.75v-48h32v48" fill="#fff"/><g><path d="m247.5 268.25h16v15h-16z"/><path d="m399 291.25h112v-47h-16v-74.577l-48-80v-29.923h-15v29.923l-48 80v74.577h-16v47h16v49h-25v-32h-47v32h-33v-32h-47v32h-33v-32h-47v32h-25v-49h16v-47h-16v-74.577l-48-80v-29.923h-15v29.923l-48 80v74.577h-16v47h16v40.5h15v-40.5h81v89h-17v-48h-47v48h-17v-32.5h-15v151.5h479v-191.5h-15v72.5h-17v-48h-47v48h-17zm75.254-127h-69.507l34.754-57.923zm-75.254 15h81v65h-17v-48h-47v48h-17zm49 65h-17v-33h17zm-65 15h113v17h-113zm-276.746-95h-69.508l34.754-57.923zm-75.254 15h81v65h-17v-48h-47v48h-17zm49 65h-17v-33h17zm-65 15h113v17h-113zm152 96v-32h17v32h63v-32h17v32h63v-32h17v32h40v129h-89v-56.5c0-21.78-17.72-39.5-39.5-39.5s-39.5 17.72-39.5 39.5v56.5h-89v-129zm113 129h-49v-56.5c0-13.51 10.99-24.5 24.5-24.5s24.5 10.99 24.5 24.5zm-217-137h17v33h-17zm-32 48h81v89h-17v-48h-47v48h-17zm49 89h-17v-33h17zm368 0h-17v-33h17zm-17-137h17v33h-17zm49 48v89h-17v-48h-47v48h-17v-89z"/><path d="m168 291.75h15v-48.5h145v48.5h15v-48.5h16v-47h-16v-75.606l-80-80v-28.894h-15v28.894l-80 80v75.606h-16v47h16zm149.394-175.5h-123.788l61.894-61.894zm-134.394 15h145v65h-49v-48h-47v48h-49zm81 65h-17v-33h17zm-97 15h177v17h-177z"/></g></g></svg>