<svg height="512" viewBox="0 0 512 512" width="512" xmlns="http://www.w3.org/2000/svg"><g id="filled_outline" data-name="filled outline"><path d="m288 264v-160h40l-72-80-72 80h40v160z" fill="#ffc431"/><path d="m336 288a24 24 0 0 0 24-24v-24a16 16 0 0 1 16-16h32v40l80-72-80-72v40h-40.00006a55.99994 55.99994 0 0 0 -55.99994 55.99994v24.00006l-112-.0026v-24.00006a55.99994 55.99994 0 0 0 -55.99994-55.99994h-40.00006v-40l-80 72 80 72v-40h32a16 16 0 0 1 16 16v24a24 24 0 0 0 24 24z" fill="#ef5e3b"/><path d="m192 352h-8l-16-24 16-64 56-24h32l56 24 16 56-16 32h-8l-8 40h-112z" fill="#548aff"/><path d="m280 200v24a24 24 0 0 1 -24 24 24 24 0 0 1 -24-24v-24z" fill="#ffceb6"/><path d="m232 200v-13.57781a18.42218 18.42218 0 0 1 18.42219-18.42219 18.42223 18.42223 0 0 1 10.21879 3.094l19.35902 12.906v16z" fill="#b1712c"/><path d="m312 392 4.267 96h-36.267l-24-48-24 48h-36.267l4.267-96z" fill="#62798c"/><path d="m320 352h-32l-32-16-24 16h-40l8 40h112z" fill="#4976f2"/><path d="m258.909 291.636-50.909 20.364v-32h16z" fill="#ffceb6"/><path d="m264.667 289.333 15.333 30.667 24-16v-24h-16z" fill="#ffceb6"/><path d="m189.95215 493.53027a8.003 8.003 0 0 0 5.78125 2.46973h36.2666a8.00022 8.00022 0 0 0 7.15527-4.42188l16.84473-33.68945 16.84473 33.68945a8.00022 8.00022 0 0 0 7.15527 4.42188h36.2666a7.99921 7.99921 0 0 0 7.99219-8.35547l-4.22363-95.02832 6.52343-32.61621h1.44141a8.00022 8.00022 0 0 0 7.15527-4.42188l16-32a8.00091 8.00091 0 0 0 .53711-5.77636l-16-56a8.002 8.002 0 0 0 -4.541-5.15528l-45.90918-19.67529a31.7932 31.7932 0 0 0 2.7578-12.97119v-40a7.99943 7.99943 0 0 0 -3.5625-6.65625l-19.3584-12.90527a26.42157 26.42157 0 0 0 -41.0791 21.9834v37.57812a31.801 31.801 0 0 0 2.75757 12.97119l-45.90894 19.67529a7.99834 7.99834 0 0 0 -4.60937 5.41309l-16 64a8 8 0 0 0 1.10449 6.37793l16 24a7.99943 7.99943 0 0 0 6.65625 3.5625h1.44141l6.52343 32.61621-4.22363 95.02832a8.00411 8.00411 0 0 0 2.21094 5.88574zm94.99219-13.53027-21.78907-43.57812a8.00009 8.00009 0 0 0 -14.31054 0l-21.78907 43.57812h-22.959l3.55566-80h96.69532l3.55566 80zm-44.94434-256v-16h32v16a16 16 0 0 1 -32 0zm10.42188-48a10.38378 10.38378 0 0 1 5.78124 1.75l15.79688 10.53125v3.71875h-32v-5.57812a10.43312 10.43312 0 0 1 10.42188-10.42188zm-73.80274 150.50684 14.17969-56.71684 46.42944-19.89795a31.90035 31.90035 0 0 0 37.5437 0l46.58057 19.9624 14.10058 49.35156-12.39746 24.79399h-33.167l-17.981-8.99048 30.60694-20.40478 14.95508 4.9851 5.06054-15.17968-10.53022-3.51001v-20.90015a8.00039 8.00039 0 0 0 -8-8h-16a7.99723 7.99723 0 0 0 -2.9707.57227l-26.3711 10.54785-32.12793-10.71a8.0151 8.0151 0 0 0 -2.53027-.41012h-16a8.00039 8.00039 0 0 0 -8 8v32a7.999 7.999 0 0 0 10.9707 7.42773l49.83252-19.93261 8.8833 17.76611-40.1084 26.73877h-41.29687zm119.38086-26.78809-12.89746 8.59814-7.39209-14.78466 13.83055-5.53223h6.459zm-60.33984-7.39941-19.66016 7.86425v-12.18359h6.70215zm-3.66016 67.68066a8.00221 8.00221 0 0 0 4.4375-1.34375l20.13721-13.4248 27.84717 13.92382a7.99934 7.99934 0 0 0 3.57812.84473h22.24121l-4.7998 24h-98.88282l-4.8-24z"/><path d="m232 152v-48a8.00039 8.00039 0 0 0 -8-8h-22.03711l54.03711-60.041 54.03711 60.041h-22.03711a8.00039 8.00039 0 0 0 -8 8v48h16v-40h32a8.00006 8.00006 0 0 0 5.94629-13.35156l-72-80a7.99954 7.99954 0 0 0 -11.89258 0l-72 80a8.00006 8.00006 0 0 0 5.94629 13.35156h32v40z"/><path d="m98.64844 269.94629a8.00006 8.00006 0 0 0 13.35156-5.94629v-32h24a8.00917 8.00917 0 0 1 8 8v24h16v-24a24.0275 24.0275 0 0 0 -24-24h-32a8.00039 8.00039 0 0 0 -8 8v22.03711l-60.041-54.03711 60.041-54.03711v22.03711a8.00039 8.00039 0 0 0 8 8h40a48.05375 48.05375 0 0 1 48 48v16h16v-16a64.07207 64.07207 0 0 0 -64-64h-32v-32a8.00006 8.00006 0 0 0 -13.35156-5.94629l-80 72a7.99954 7.99954 0 0 0 0 11.89258z"/><path d="m493.35156 186.05664-80-72a8.00006 8.00006 0 0 0 -13.35156 5.94629v32h-32a64.07207 64.07207 0 0 0 -64 64v16h16v-16a48.05375 48.05375 0 0 1 48-48h40a8.00039 8.00039 0 0 0 8-8v-22.03711l60.041 54.03711-60.041 54.03707v-22.03707a8.00039 8.00039 0 0 0 -8-8h-32a24.0275 24.0275 0 0 0 -24 24v24h16v-24a8.00917 8.00917 0 0 1 8-8h24v32a7.99984 7.99984 0 0 0 13.35156 5.94629l80-72a7.99954 7.99954 0 0 0 0-11.89258z"/></g></svg>