<?xml version="1.0" encoding="utf-8"?>
<!-- Generator: Adobe Illustrator 24.0.3, SVG Export Plug-In . SVG Version: 6.00 Build 0)  -->
<svg version="1.1" id="Layer_1" xmlns="http://www.w3.org/2000/svg" xmlns:xlink="http://www.w3.org/1999/xlink" x="0px" y="0px"
	 viewBox="0 0 788 434" style="enable-background:new 0 0 788 434;" xml:space="preserve">
<style type="text/css">
	.st0{fill:#6C6CFF;}
	.st1{fill:#FF6652;}
</style>
<g>
	<g>
		<path class="st0" d="M78.1,93c11.6-2.4,20.5-13.9,19.8-25.6c-0.6-11.7-10.5-19.3-22.1-16.9C64.2,52.9,55.3,64.4,56,76.1
			C56.6,87.8,66.5,95.4,78.1,93z"/>
		<path class="st0" d="M762.7,52c-19.9-27.5-53.1-45.2-91-48.5c-26.8-2.3-53.9,2.4-79,13.8c-23.2,10.6-42.8,27.1-56.9,46.8
			c-2.9,4.1-4.7,9-4.4,14c0.6,10.4,9.3,17.1,19.6,15c4-0.8,7.6-2.6,11.9-7.1c3.3-3.4,21.2-25,45-36.2c18.2-8.6,38.7-12.3,60.7-10.7
			c9.1,0.7,18.8,3.3,18.9,3.3c19.3,5.3,35.5,15.9,45.9,30.4c10.8,15,13.2,32.3,8.7,50c-2.1,8.2-5.1,15.3-8.5,21.5
			c-9.3,16.9-21.2,26.4-28.6,31.3c-3.9,2.6-6.4,3.9-6.4,3.9c0-0.6,1-6.2,0.5-15.6c-0.3-5.7-1.4-12-3.6-18.7
			c-2.6-7.8-8.6-19.9-21.3-27.7c-7.7-4.7-16.9-7.6-27.4-8.2c-16.5-0.9-34.3,3-49.4,13c-32,21.1-39.9,43.2-67.5,57.7
			c0-0.7,1.9-15.6-1.9-30.4c-2.9-11.4-8.7-22.4-19.7-30.7c-7.8-5.9-18.2-9.5-30.1-9.6c-31.3-0.3-57.7,13.9-85.2,51.8
			c-6.5,8.8-21.7,32.7-38.9,50.5c-12.8,13.2-27.7,25.1-38.6,25.1c-14.7,0-16.2-14.6-16.2-14.6s9.3-7,21.4-17
			C393,145.3,420,75,413,37c-3.4-18.8-15.8-32.5-35.6-33.8c-13.7-0.9-48.1,1.7-78.7,58.3c-16,29.5-29.7,74.7-34.2,99.5
			s-5,44.5-5,44.5l-37,26.2c0,0,5.7-14.1,10.1-27c8.6-24.8,18.1-60.3-5.6-82.3c-12.3-11.4-34.6-16.6-58.5-9.8
			c-12.2,3.4-24.7,10-36.1,20.2c-35.3,31.6-56.9,93.5-77.7,99.4c-15.8,4.5-7.9-27.4-7.9-27.4c3.2-15.2,14.6-46.7,23.6-67.2
			c2.6-5.9,3.4-10.5,1.8-15.7c-3.4-10.5-15.2-15.1-25.2-10c-4.6,2.3-7.2,5.9-10.6,11.8c-5.4,9.5-19.6,45.9-23.6,63
			c-2.1,9.2-24.8,85.7,34.9,85.7c19.3,0,36.2-14,44.9-22.7c3.9-3.9,6.1-6.7,6.1-6.7s18.8,39.8,69.8,26.7
			c-21.9,15.5-54.6,38.5-66.9,47.8c-16.1,12.1-28.1,25.4-35.3,38.8c-7,13.1-9.6,26.4-7.3,38.9c3.2,16.8,14.9,29.5,31.4,34.1
			c4.9,1.4,9.9,2,14.7,2c30,0,54.7-25.3,69-67.3c1.2-3.2,11.5-32.2,25.8-70.9c0,0,66.9-47,66.9-47c4.3,9.6,16.4,26.5,45.3,26.5
			c24.3,0,43-10.3,63.6-30.7c4.5,9.2,12.3,18.1,24.8,24.5c15.7,8,38.5,9.6,65-2.7c20.1-9.3,39.2-26.5,51.1-46.3
			c9.2-1.6,17-3.8,22.5-5.6c-0.2,4.1,0,6.6,0,6.6c1.5,30.2,21.7,52.5,53.4,54.2c13.8,0.7,28.1-2.5,41.5-8.9
			c13.6-6.4,25.1-15.4,33.5-23.8c10-10.1,15.6-19.3,17.4-22.2c21.1-3.4,41.7-12.8,57.2-27.2c18.7-16.3,30.9-37.9,36.1-58.7
			C785.2,103.7,779.6,75.5,762.7,52z M140.9,346.1c-3.2,8.8-7.2,19.8-13.2,28.8c0,0,0,0,0,0c-10.9,16.4-22.2,21.8-29.6,17.2
			c-6.7-4.2-4.1-17.7,9.6-31.8c15.6-16.1,39.1-30.2,39.1-30.2C146.8,330,144.2,336.9,140.9,346.1z M199.3,179.1
			c-8.9,38.3-35.1,54.1-49.5,56.2c-17.7,2.5-25.7-16.4-17.3-40.9c8.4-24.5,29.6-46.2,47.3-48.4C195.6,144,204,158.7,199.3,179.1z
			 M300.3,177.2c8-48.7,32.7-100.4,46.5-119.4c9.3-12.7,18.3-19.8,25.1-18.2C388.9,43.4,376.5,111.9,300.3,177.2z M462.6,221.8
			c-10.8,8.4-22.8,13.5-33.6,13.5c-2.2,0-10.1,0-14.6-6.1c-4.7-6.4-5.8-15.9-3-27.6c1.5-6.1,4-12.4,7.2-18
			c4.7-8.2,10.1-13.8,10.1-13.8s0.2,3,1.4,8c2.8,11.4,10.6,29.5,39.4,37.8C467.4,217.7,465,219.9,462.6,221.8z M491.4,182.3
			c-16-0.8-25.6-9.9-27.5-17.9c-2-8.6,2.8-14.2,6.2-16.3c8.1-5,15.8-1.4,19.2,3.2C494.9,158.6,495.4,171.7,491.4,182.3z
			 M631.2,221.7c-10.9,8.4-22.8,13.5-33.6,13.5c-2.2,0-10.1,0-14.6-6.1c-4.7-6.4-5.8-16-3-27.6c1.3-5.2,4-12.4,7.2-18
			c4.8-8.3,10.1-13.8,10.1-13.8s0.2,3,1.4,8c2.8,11.3,10.8,30.1,39.6,37.6C636.2,217.5,633.6,219.8,631.2,221.7z M659.5,182.3
			c-16-0.8-25.6-9.9-27.5-17.9c-2-8.6,2.8-14.2,6.2-16.3c8.1-5,15.8-1.4,19.2,3.2C663,158.6,663.5,171.7,659.5,182.3z"/>
	</g>
	<path class="st1" d="M377.4,3.2c-13.7-0.9-48.1,1.7-78.7,58.3c-16,29.5-29.7,74.7-34.2,99.5c-4.5,24.8-5,44.5-5,44.5
		c-0.3,16.7,2.1,29.1,7.2,40.4c0,0,0,0,0,0c4.3,9.6,16.4,26.4,45.2,26.4c24.3,0,43-10.3,63.6-30.7c-64,31.7-75.5-10.9-76.5-19.3
		c-2.1-16.6,1.2-45.1,1.2-45.1c7.8-47.6,31.5-98.1,45.6-118.1c0,0,0,0,0,0c36.5-56.6,63-36.5,67.2-22.1
		C409.6,18.2,397.2,4.5,377.4,3.2z"/>
	<g>
		<path class="st1" d="M767.2,128.7c0,23.2-8.7,44.7-24.9,61.3c18.6-16.3,30.9-37.9,36-58.6c6.9-27.8,1.4-56-15.5-79.4
			c-19.9-27.5-53.1-45.2-91-48.5c-26.8-2.3-53.9,2.4-79,13.8c-23.2,10.6-42.8,27.1-56.9,46.8c-2.9,4.1-4.7,9-4.4,14
			c0.6,10.4,9.3,17.1,19.6,15c4-0.8,7.6-2.6,11.9-7.1c3.3-3.4,21.2-25,45-36.2c18.2-8.6,38.7-12.3,60.7-10.7
			c8.8,0.7,18.2,3.2,18.8,3.3v0C732.6,52.7,767.2,85.4,767.2,128.7z"/>
	</g>
	<path class="st1" d="M699,164c-0.3-5.7-1.4-12-3.6-18.7c-2.6-7.8-8.6-19.9-21.3-27.7c-0.1-0.1-0.3-0.2-0.4-0.2
		c-13.3-7.6-36.2-7.7-52.2,2.9c-15.2,10.2-24.9,26-24.1,49.5c0,0,0,0,0,0.1c0,0,0,0,0,0c0.2,2.4,5.9,24.9,44.6,24.9
		c10.4,0,21-1.2,33.2-5c13.4-4.2,23.2-10,23.2-10C698.5,179.1,699.5,173.5,699,164z M659.5,182.3c-16-0.8-25.6-9.9-27.5-17.9
		c-2-8.6,2.8-14.2,6.2-16.3c8.1-5,15.8-1.4,19.2,3.2C663,158.6,663.5,171.7,659.5,182.3z"/>
	<g>
		<path class="st1" d="M667.9,218.7c-11.3,0-21.1-1.1-29.5-3.3c-2.2,2.1-4.8,4.5-7.3,6.4c-10.9,8.4-22.8,13.5-33.6,13.5
			c-2.2,0-10.1,0-14.6-6.1c-4.7-6.4-5.8-16-3-27.6c1.1-4.4,3.2-10.3,5.8-15.4c-18.2,33.9-11.7,56.8,0.8,69.5
			c14.8,15,38.9,11.7,47.9,7.5c1.7-0.8,3.4-1.7,5.1-2.6c11.2-6.1,20.7-13.8,27.9-21c10-10.1,15.6-19.3,17.4-22.2
			C679.3,218.2,673.5,218.7,667.9,218.7z"/>
	</g>
	<path class="st1" d="M218.3,230.6c-9.3,12.2-20.6,22.8-29.1,28.7c-7.1,4.9-14.1,8.2-20.7,10.1c0,0-24.3,67.5-27.6,76.7
		c-3.2,8.8-7.2,19.8-13.2,28.8c0,0,0,0,0,0c-0.6,1-20.1,38.2-48.3,28.4C52.2,393.8,64.7,359,66.2,356c-7,13.1-9.6,26.4-7.3,38.9
		c3.2,16.8,14.9,29.5,31.4,34.1c4.9,1.4,9.9,2,14.7,2c30,0,54.7-25.3,69-67.3c1.2-3.2,11.5-32.2,25.8-70.9l22.6-61.2
		c0,0,5.4-13.5,9.8-26.2C228.8,215,224.4,222.5,218.3,230.6z"/>
	<g>
		<g>
			<path class="st1" d="M199.3,179.1c17.2-61.4-15.2-69.4-29.6-66.9c-0.4,0.1-0.7,0.2-1.1,0.3c-12.2,3.4-24.7,10-36.1,20.2
				c-35.3,31.6-56.9,93.5-77.7,99.4c-12.6,3.6-10.1-16.1-8.6-24.1c0,0,0,0,0,0c-3.1,15.1-4.6,36.1,8.7,45.4
				c9.4,6.6,25.8,5.8,36.9-3.1c0.3-0.3,0.5-0.5,0.8-0.8c3.9-3.9,6.1-6.7,6.1-6.7s0,0.1,0.1,0.2c4,6.5,38.7,26.1,80.7-25.2
				c-10.2,11-21.8,16.3-29.7,17.4c-17.7,2.5-25.7-16.4-17.3-40.9c8.4-24.5,29.6-46.2,47.3-48.4C195.6,144,204,158.7,199.3,179.1
				C199.3,179.1,199.3,179.1,199.3,179.1z"/>
		</g>
		<path class="st1" d="M46.9,204.7C46.9,204.7,46.9,204.7,46.9,204.7C46.9,204.7,46.9,204.7,46.9,204.7
			C46.9,204.7,46.9,204.7,46.9,204.7z"/>
	</g>
	<path class="st1" d="M527.8,149.7c-2.9-11.4-8.7-22.4-19.7-30.7c-0.5-0.4-1-0.7-1.5-1.1c-13.4-7.6-37.7-7.9-53.7,2.7
		c-15.2,10.2-24.9,25.7-24.1,49.2l0,0.4c0.2,2.4,5.9,24.9,44.6,24.9c10.4,0,21-1.2,33.2-5c13.3-4.1,22.8-9.9,23-10
		C529.7,179.3,531.6,164.4,527.8,149.7z M491.4,182.3c-16-0.8-25.6-9.9-27.5-17.9c-2-8.6,2.8-14.2,6.2-16.3c8.1-5,15.8-1.4,19.2,3.2
		C494.9,158.6,495.4,171.7,491.4,182.3z"/>
	<path class="st1" d="M499.1,218.9c-11.3,0-21.1-1.1-29.5-3.3c-2.2,2.1-4.6,4.3-7.1,6.2c-10.8,8.4-22.8,13.5-33.6,13.5
		c-2.2,0-10.1,0-14.6-6.1c-4.7-6.4-5.8-15.9-3-27.6c1.2-5,3.1-10.1,5.5-14.9c0.1-0.1,0.1-0.2,0.2-0.3c-18.2,33.9-11.9,56.8,0.7,69.5
		c14.8,15,38.9,11.6,47.9,7.4c0,0,0,0,0,0c20-9.3,39-26.5,50.9-46.2C510.9,217.8,504.7,218.9,499.1,218.9z"/>
</g>
</svg>
