<svg id="Capa_1" enable-background="new 0 0 512 512" height="512" viewBox="0 0 512 512" width="512" xmlns="http://www.w3.org/2000/svg"><g><g><g><g><g><g><g><circle cx="256" cy="256" fill="#80dbff" r="256"/></g></g></g></g></g></g><path d="m512 256c0-7.215-.299-14.36-.884-21.424l-68.633-68.633-186.483-81.123-171.163 106.918c1.034 1.456 47.173 47.698 104.264 104.754l-84.496 61.273 37.133 37.133-13.974 12.104 103.852 103.852c8.025.758 16.159 1.146 24.384 1.146 141.385 0 256-114.615 256-256z" fill="#4ab8f7"/><g><g><path d="m127.763 321.988h51.301v85.014h-51.301z" fill="#555a66"/></g><g><path d="m332.936 321.988h51.301v85.014h-51.301z" fill="#333940"/></g></g><g><path d="m377.27 281.306h-242.54l20.752-98.878c3.611-17.205 18.785-29.525 36.365-29.525h128.305c17.58 0 32.754 12.32 36.365 29.525z" fill="#ff6c52"/></g><g><path d="m356.518 182.427c-3.611-17.205-18.785-29.525-36.365-29.525h-64.174v128.404h121.291z" fill="#ff432e"/></g><g><path d="m339.903 255.367h-167.806l12.368-58.929c2.152-10.254 11.196-17.596 21.673-17.596h99.725c10.477 0 19.521 7.342 21.673 17.596z" fill="#fff"/></g><g><path d="m327.536 196.438c-2.152-10.254-11.196-17.596-21.673-17.596h-49.884v76.525h83.924z" fill="#e9edf5"/></g><g><path d="m407.396 357.765h-302.792v-71.529c0-25.124 20.367-45.49 45.49-45.49h211.811c25.124 0 45.49 20.367 45.49 45.49v71.529z" fill="#ff6c52"/></g><g><path d="m407.396 286.236c0-25.124-20.367-45.49-45.49-45.49h-105.927v117.02h151.417z" fill="#ff432e"/></g><g><g><path d="m130.545 283.771h77.538v30.968h-77.538z" fill="#ffce00"/></g><g><path d="m303.917 283.771h77.538v30.968h-77.538z" fill="#fdba12"/></g></g><g><path d="m84.837 191.738-15.32-25.793 186.483-110.774 186.483 110.772-15.32 25.793-171.163-101.672z" fill="#555a66"/></g><g><path d="m256 90.064 171.163 101.672 15.32-25.793-186.483-110.772z" fill="#333940"/></g></g></svg>