<svg id="Capa_1" enable-background="new 0 0 512 512" height="512" viewBox="0 0 512 512" width="512" xmlns="http://www.w3.org/2000/svg"><g><path d="m474.5 247.5-90-30v227h90z" fill="#953f56"/><path d="m165 217.5h279.5v227h-279.5z" fill="#ca3d44"/><path d="m449 166.5-102-54h-30l127.5 135h30z" fill="#20335a"/><path d="m419 166.5-72-54h-182v135h279.5z" fill="#2b4478"/><path d="m267 166.5-102-54-102 54-25.5 81v197h255v-197z" fill="#ff3a33"/><circle cx="165" cy="195" fill="#fff" r="22.5"/><path d="m120 262.5h112.5v182h-112.5z" fill="#ffcf70"/><path d="m97.5 262.5h67.5v182h-67.5z" fill="#ffeca1"/><path d="m232.5 247.5-15 15 15 15h30v-30z" fill="#ffeca1"/><path d="m67.5 247.5h165v30h-165z" fill="#fff"/><path d="m271.5 7.5c-5.881 0-11.277 2.074-15.5 5.528l-15 18.972 15 50.5s40-18.817 40-50.5c0-13.531-10.969-24.5-24.5-24.5z" fill="#ff3a33"/><path d="m240.5 7.5c-13.531 0-24.5 10.969-24.5 24.5 0 31.683 40 50.5 40 50.5v-69.472c-4.223-3.454-9.619-5.528-15.5-5.528z" fill="#ff534d"/><path d="m444.5 438.271 30 66.229h30v-36.229z" fill="#ff6237"/><path d="m7.5 468.271v36.229h467v-66.229z" fill="#ff893b"/><path d="m459.5 414.5 15 53.823c5.601.263 10.67 2.55 14.469 6.177 4.039-3.856 9.506-6.229 15.531-6.229v-38.771z" fill="#ff3a33"/><path d="m7.5 429.5v38.771c6.025 0 11.492 2.373 15.531 6.229 4.039-3.856 9.506-6.229 15.531-6.229s11.492 2.373 15.531 6.229c4.039-3.856 9.506-6.229 15.531-6.229s11.492 2.373 15.531 6.229c4.039-3.856 9.506-6.229 15.531-6.229s11.492 2.373 15.531 6.229c4.039-3.856 9.506-6.229 15.531-6.229s11.492 2.373 15.531 6.229c4.039-3.856 9.506-6.229 15.531-6.229s11.492 2.373 15.531 6.229c4.039-3.856 9.506-6.229 15.531-6.229s11.492 2.373 15.531 6.229c4.039-3.856 9.506-6.229 15.531-6.229s11.492 2.373 15.531 6.229c4.039-3.856 9.506-6.229 15.531-6.229s11.492 2.373 15.531 6.229c4.039-3.856 9.506-6.229 15.531-6.229s11.492 2.373 15.531 6.229c4.039-3.856 9.506-6.229 15.531-6.229s11.492 2.373 15.531 6.229c4.039-3.856 9.506-6.229 15.531-6.229s11.492 2.373 15.531 6.229c4.039-3.856 9.506-6.229 15.531-6.229s11.492 2.373 15.531 6.229c4.039-3.856 9.506-6.229 15.531-6.229s11.492 2.373 15.531 6.229c4.039-3.856 9.506-6.229 15.531-6.229s11.492 2.373 15.531 6.229c4.039-3.856 9.506-6.229 15.531-6.229.359 0 .708.036 1.063.052v-53.823z" fill="#ff6237"/><path d="m474.5 399.5-15 15.026 15 15.026c5.601.263 10.67 2.55 14.469 6.177 4.039-3.856 9.506-6.229 15.531-6.229v-30z" fill="#ff6237"/><path d="m7.5 399.5v30c6.025 0 11.492 2.373 15.531 6.229 4.039-3.856 9.506-6.229 15.531-6.229s11.492 2.373 15.531 6.229c4.039-3.856 9.506-6.229 15.531-6.229s11.492 2.373 15.531 6.229c4.039-3.856 9.506-6.229 15.531-6.229s11.492 2.373 15.531 6.229c4.039-3.856 9.506-6.229 15.531-6.229s11.492 2.373 15.531 6.229c4.039-3.856 9.506-6.229 15.531-6.229s11.492 2.373 15.531 6.229c4.039-3.856 9.506-6.229 15.531-6.229s11.492 2.373 15.531 6.229c4.039-3.856 9.506-6.229 15.531-6.229s11.492 2.373 15.531 6.229c4.039-3.856 9.506-6.229 15.531-6.229s11.492 2.373 15.531 6.229c4.039-3.856 9.506-6.229 15.531-6.229s11.492 2.373 15.531 6.229c4.039-3.856 9.506-6.229 15.531-6.229s11.492 2.373 15.531 6.229c4.039-3.856 9.506-6.229 15.531-6.229s11.492 2.373 15.531 6.229c4.039-3.856 9.506-6.229 15.531-6.229s11.492 2.373 15.531 6.229c4.039-3.856 9.506-6.229 15.531-6.229s11.492 2.373 15.531 6.229c4.039-3.856 9.506-6.229 15.531-6.229s11.492 2.373 15.531 6.229c4.039-3.856 9.506-6.229 15.531-6.229.359 0 .708.036 1.063.052v-30.052z" fill="#ff893b"/><path d="m165 225c16.542 0 30-13.458 30-30s-13.458-30-30-30-30 13.458-30 30 13.458 30 30 30zm0-45c8.271 0 15 6.729 15 15s-6.729 15-15 15-15-6.729-15-15 6.729-15 15-15z"/><path d="m252.808 89.287c1.01.475 2.101.713 3.192.713s2.182-.238 3.192-.713c1.81-.851 44.308-21.258 44.308-57.287 0-17.645-14.355-32-32-32-5.438 0-10.783 1.399-15.5 4.008-4.717-2.609-10.062-4.008-15.5-4.008-17.645 0-32 14.355-32 32 0 36.029 42.498 56.436 44.308 57.287zm-12.308-74.287c3.968 0 7.686 1.326 10.751 3.833 2.764 2.26 6.734 2.26 9.498 0 3.065-2.507 6.783-3.833 10.751-3.833 9.374 0 17 7.626 17 17 0 21.705-23.741 37.084-32.5 42.018-8.768-4.94-32.5-20.318-32.5-42.018 0-9.374 7.626-17 17-17z"/><path d="m504.5 392h-22.5v-144.5c0-.764-.117-1.523-.346-2.252l-25.5-81c-.593-1.881-1.902-3.454-3.646-4.376l-102-54c-1.08-.573-2.284-.872-3.508-.872h-182c-1.224 0-2.428.299-3.509.872l-102 54c-1.743.923-3.053 2.495-3.646 4.376l-25.5 81c-.228.729-.345 1.488-.345 2.252v144.5h-22.5c-4.143 0-7.5 3.358-7.5 7.5v105c0 4.142 3.357 7.5 7.5 7.5h497c4.143 0 7.5-3.358 7.5-7.5v-105c0-4.142-3.357-7.5-7.5-7.5zm-159.363-272 97.634 51.688 21.505 68.312h-166.274l-23.848-75.752c-.593-1.881-1.902-3.454-3.646-4.376l-75.312-39.872zm121.863 135v137h-167v-137zm30 242h-482v-19.199c1.019.591 1.981 1.292 2.852 2.123 2.898 2.768 7.461 2.768 10.359 0 2.805-2.678 6.481-4.153 10.352-4.153s7.547 1.475 10.352 4.153c2.898 2.768 7.461 2.768 10.359 0 2.805-2.678 6.481-4.153 10.352-4.153s7.547 1.475 10.352 4.153c2.898 2.768 7.461 2.768 10.359 0 2.805-2.678 6.481-4.153 10.352-4.153s7.547 1.475 10.352 4.153c2.898 2.768 7.461 2.768 10.359 0 2.805-2.678 6.481-4.153 10.352-4.153s7.547 1.475 10.352 4.153c2.898 2.768 7.461 2.768 10.359 0 2.805-2.678 6.481-4.153 10.352-4.153s7.547 1.475 10.352 4.153c2.898 2.768 7.461 2.768 10.359 0 2.805-2.678 6.481-4.153 10.352-4.153s7.547 1.475 10.352 4.153c2.898 2.768 7.461 2.768 10.359 0 2.805-2.678 6.481-4.153 10.352-4.153s7.547 1.475 10.352 4.153c2.898 2.768 7.461 2.768 10.359 0 2.805-2.678 6.481-4.153 10.352-4.153s7.547 1.475 10.352 4.153c2.898 2.768 7.461 2.768 10.359 0 2.805-2.678 6.481-4.153 10.352-4.153s7.547 1.475 10.352 4.153c2.898 2.768 7.461 2.768 10.359 0 2.805-2.678 6.481-4.153 10.352-4.153s7.547 1.475 10.352 4.153c2.898 2.768 7.461 2.768 10.359 0 2.805-2.678 6.481-4.153 10.352-4.153s7.547 1.475 10.352 4.153c2.898 2.768 7.461 2.768 10.359 0 2.805-2.678 6.481-4.153 10.352-4.153s7.547 1.475 10.352 4.153c2.898 2.768 7.461 2.768 10.359 0 2.805-2.678 6.481-4.153 10.352-4.153s7.547 1.475 10.352 4.153c2.898 2.768 7.461 2.768 10.359 0 2.805-2.678 6.481-4.153 10.352-4.153s7.547 1.475 10.352 4.153c2.898 2.768 7.461 2.768 10.359 0 2.805-2.678 6.481-4.153 10.352-4.153s7.547 1.475 10.352 4.153c1.449 1.384 3.314 2.076 5.18 2.076s3.73-.692 5.18-2.076c.871-.831 1.833-1.532 2.852-2.123v19.199zm0-35.268c-2.826.728-5.532 1.852-8.031 3.37-4.646-2.821-9.988-4.331-15.531-4.331s-10.886 1.51-15.531 4.331c-4.646-2.821-9.988-4.331-15.531-4.331s-10.886 1.51-15.531 4.331c-4.646-2.821-9.988-4.331-15.531-4.331s-10.886 1.51-15.531 4.331c-4.646-2.821-9.988-4.331-15.531-4.331s-10.886 1.51-15.531 4.331c-4.646-2.821-9.988-4.331-15.531-4.331s-10.886 1.51-15.531 4.331c-4.646-2.821-9.988-4.331-15.531-4.331s-10.886 1.51-15.531 4.331c-4.646-2.821-9.988-4.331-15.531-4.331s-10.886 1.51-15.531 4.331c-4.646-2.821-9.988-4.331-15.531-4.331s-10.886 1.51-15.531 4.331c-4.646-2.821-9.988-4.331-15.531-4.331s-10.886 1.51-15.531 4.331c-4.646-2.821-9.988-4.331-15.531-4.331s-10.886 1.51-15.531 4.331c-4.646-2.821-9.988-4.331-15.531-4.331s-10.886 1.51-15.531 4.331c-4.646-2.821-9.988-4.331-15.531-4.331s-10.886 1.51-15.531 4.331c-4.646-2.821-9.988-4.331-15.531-4.331s-10.886 1.51-15.531 4.331c-4.646-2.821-9.988-4.331-15.531-4.331s-10.886 1.51-15.531 4.331c-4.646-2.821-9.988-4.331-15.531-4.331s-10.886 1.51-15.531 4.331c-2.5-1.518-5.205-2.642-8.031-3.37v-22.702c1.019.591 1.981 1.292 2.852 2.123 2.898 2.768 7.461 2.768 10.359 0 2.805-2.678 6.481-4.153 10.352-4.153s7.547 1.475 10.352 4.153c2.898 2.768 7.461 2.768 10.359 0 2.805-2.678 6.481-4.153 10.352-4.153s7.547 1.475 10.352 4.153c2.898 2.768 7.461 2.768 10.359 0 2.805-2.678 6.481-4.153 10.352-4.153s7.547 1.475 10.352 4.153c2.898 2.768 7.461 2.768 10.359 0 2.805-2.678 6.481-4.153 10.352-4.153s7.547 1.475 10.352 4.153c2.898 2.768 7.461 2.768 10.359 0 2.805-2.678 6.481-4.153 10.352-4.153s7.547 1.475 10.352 4.153c2.898 2.768 7.461 2.768 10.359 0 2.805-2.678 6.481-4.153 10.352-4.153s7.547 1.475 10.352 4.153c2.898 2.768 7.461 2.768 10.359 0 2.805-2.678 6.481-4.153 10.352-4.153s7.547 1.475 10.352 4.153c2.898 2.768 7.461 2.768 10.359 0 2.793-2.678 6.47-4.153 10.34-4.153s7.547 1.475 10.352 4.153c2.898 2.768 7.461 2.768 10.359 0 2.805-2.678 6.481-4.153 10.352-4.153s7.547 1.475 10.352 4.153c2.898 2.768 7.461 2.768 10.359 0 2.805-2.678 6.481-4.153 10.352-4.153s7.547 1.475 10.352 4.153c2.898 2.768 7.461 2.768 10.359 0 2.805-2.678 6.481-4.153 10.352-4.153s7.547 1.475 10.352 4.153c2.898 2.768 7.461 2.768 10.359 0 2.805-2.678 6.481-4.153 10.352-4.153s7.547 1.475 10.352 4.153c2.898 2.768 7.461 2.768 10.359 0 2.805-2.678 6.481-4.153 10.352-4.153s7.547 1.475 10.352 4.153c2.898 2.768 7.461 2.768 10.359 0 2.805-2.678 6.481-4.153 10.352-4.153s7.547 1.475 10.352 4.153c2.898 2.768 7.461 2.768 10.359 0 2.805-2.678 6.481-4.153 10.352-4.153s7.547 1.475 10.352 4.153c1.449 1.384 3.314 2.076 5.18 2.076s3.73-.692 5.18-2.076c.871-.831 1.833-1.532 2.852-2.123v22.702zm0-38.771c-2.826.728-5.532 1.852-8.031 3.37-4.646-2.821-9.988-4.331-15.531-4.331s-10.886 1.51-15.531 4.331c-4.646-2.821-9.988-4.331-15.531-4.331s-10.886 1.51-15.531 4.331c-4.646-2.821-9.988-4.331-15.531-4.331s-10.886 1.51-15.531 4.331c-4.646-2.821-9.988-4.331-15.531-4.331s-10.886 1.51-15.531 4.331c-4.646-2.821-9.988-4.331-15.531-4.331s-10.886 1.51-15.531 4.331c-4.646-2.821-9.988-4.331-15.531-4.331s-10.886 1.51-15.531 4.331c-4.646-2.821-9.988-4.331-15.531-4.331s-10.886 1.51-15.531 4.331c-4.649-2.821-9.992-4.331-15.535-4.331s-10.886 1.51-15.531 4.331c-4.646-2.821-9.988-4.331-15.531-4.331s-10.886 1.51-15.531 4.331c-4.646-2.821-9.988-4.331-15.531-4.331s-10.886 1.51-15.531 4.331c-4.646-2.821-9.988-4.331-15.531-4.331s-10.886 1.51-15.531 4.331c-4.646-2.821-9.988-4.331-15.531-4.331s-10.886 1.51-15.531 4.331c-4.646-2.821-9.988-4.331-15.531-4.331s-10.886 1.51-15.531 4.331c-4.648-2.821-9.991-4.331-15.534-4.331s-10.886 1.51-15.531 4.331c-4.646-2.821-9.989-4.331-15.531-4.331s-10.886 1.51-15.531 4.331c-2.5-1.518-5.205-2.642-8.031-3.37v-15.961h52.5c4.143 0 7.5-3.358 7.5-7.5s-3.357-7.5-7.5-7.5h-22.501v-143.347l24.229-76.965 95.771-50.702 95.77 50.702 24.23 76.965v143.347h-45v-107h22.5c4.143 0 7.5-3.358 7.5-7.5v-30c0-4.142-3.357-7.5-7.5-7.5h-195c-4.143 0-7.5 3.358-7.5 7.5v30c0 4.142 3.357 7.5 7.5 7.5h22.5v114.5c0 4.142 3.357 7.5 7.5 7.5h399.5zm-422-152.961v-15h180v15zm150 15v107h-52.5v-107zm-67.5 0v107h-52.5v-107z"/></g></svg>