<svg id="Layer_3" enable-background="new 0 0 64 64" height="512" viewBox="0 0 64 64" width="512" xmlns="http://www.w3.org/2000/svg"><g><path d="m12 22h20v14h-20z" fill="#e8eff4"/><path d="m12 22 10-10 10 10z" fill="#e0747c"/><path d="m46.657 25c-3.622 0-7.096 1.439-9.657 4v-.929c0-4.528 1.799-8.87 5-12.071l-3-3-4 5-4-4-5.444 1.556 6.444 6.444v14h-8c1.874 1.249 3 3.353 3 5.606v20.394h10v-22.757c0-2.716 1.079-5.322 3-7.243s4.526-3 7.243-3h.757v-4z" fill="#ac876c"/><path d="m56 20c0-3.866-3.134-7-7-7-.1 0-.198.011-.298.015.192-.638.298-1.314.298-2.015 0-3.866-3.134-7-7-7-1.608 0-3.085.548-4.267 1.46-.652-2.003-2.513-3.46-4.733-3.46-2.157 0-3.978 1.373-4.68 3.287-.884-.791-2.04-1.287-3.32-1.287-1.859 0-3.462 1.027-4.324 2.532-.825-.341-1.728-.532-2.676-.532-3.866 0-7 3.134-7 7 0 1.684.595 3.229 1.586 4.436-2.675.985-4.586 3.548-4.586 6.564 0 2.792 1.634 5.202 3.998 6.325h.002v-8.325l10-10 3.556 3.556 5.444-1.556 4 4 4-5 3 3c-3.201 3.201-5 7.544-5 12.071v.929c2.561-2.561 6.035-4 9.657-4h1.343v4h-.757c-2.716 0-5.322 1.079-7.243 3s-3 4.526-3 7.243v.461c.634.189 1.304.296 2 .296 2.808 0 5.222-1.657 6.338-4.043 1.066.657 2.318 1.043 3.662 1.043 3.866 0 7-3.134 7-7 0-1.96-.808-3.729-2.106-5 1.298-1.271 2.106-3.04 2.106-5z" fill="#c7e2fc"/><path d="m18 36v-6c0-2.209 1.791-4 4-4 2.209 0 4 1.791 4 4v6z" fill="#fff"/><g><path d="m36 29c0 .404.243.769.617.924.124.051.254.076.383.076.26 0 .516-.102.707-.293 2.391-2.391 5.569-3.707 8.95-3.707h1.343v-2h-1.343c-3.136 0-6.12.978-8.607 2.79.299-3.81 1.926-7.351 4.657-10.083l-1.414-1.414c-3.413 3.414-5.293 7.952-5.293 12.778z"/><path d="m38 61v-20.075c.331.041.664.075 1 .075 2.737 0 5.281-1.424 6.738-3.701 1.026.461 2.136.701 3.262.701 4.411 0 8-3.589 8-8 0-1.842-.618-3.585-1.757-5 1.139-1.415 1.757-3.158 1.757-5 0-4.097-3.096-7.484-7.07-7.946.047-.349.07-.701.07-1.054 0-4.411-3.589-8-8-8-1.358 0-2.664.337-3.836.984-1.057-1.824-3.004-2.984-5.164-2.984-2.064 0-3.966 1.083-5.051 2.792-.898-.516-1.913-.792-2.949-.792-1.85 0-3.593.876-4.721 2.331-.737-.22-1.501-.331-2.279-.331-4.411 0-8 3.589-8 8 0 1.419.381 2.812 1.09 4.029-2.488 1.399-4.09 4.064-4.09 6.971 0 2.852 1.557 5.486 4 6.906v5.094c0 .553.447 1 1 1h1v2h-2v2h2v10h-2v2h2v4h2v-4h4v4h2v-4h2v-2h-2v-10h2v-2h-2v-2h2.666c1.462 1.08 2.334 2.776 2.334 4.605v19.395h-25v2h62v-2zm-25-26v-2h4v2zm13.899-6h4.101v2h-4v-1c0-.342-.035-.677-.101-1zm4.101-2h-5.026c-.914-1.207-2.348-2-3.974-2-1.641 0-3.088.806-4 2.031v-.031h-5v-4h18zm-13.899 2c-.066.323-.101.658-.101 1v1h-4v-2zm1.899 1c0-1.654 1.346-3 3-3s3 1.346 3 3v5h-6zm8 3h4v2h-4zm-12.586-12 7.586-7.586 7.586 7.586zm4.586 26h-4v-2h4zm-4 4v-2h4v2zm4-8h-4v-2h4zm0-4h-4v-2h4zm7.471-2h5.529c.553 0 1-.447 1-1v-14c0-.277-.112-.527-.294-.708l-9.999-9.999c-.391-.391-1.023-.391-1.414 0l-9.999 9.999c-.182.181-.294.431-.294.708v6.467c-1.248-1.123-2-2.746-2-4.467 0-2.5 1.58-4.76 3.932-5.625.304-.112.534-.363.619-.676.085-.312.014-.646-.191-.896-.878-1.07-1.36-2.42-1.36-3.803 0-3.309 2.691-6 6-6 .792 0 1.563.153 2.293.456.463.191 1.001.011 1.251-.427.716-1.252 2.04-2.029 3.456-2.029.967 0 1.909.367 2.653 1.032.248.222.589.306.909.225.322-.081.583-.315.697-.626.577-1.574 2.08-2.631 3.741-2.631 1.722 0 3.242 1.113 3.783 2.77.101.309.345.55.655.646.31.095.648.034.905-.164 1.062-.819 2.326-1.252 3.657-1.252 3.309 0 6 2.691 6 6 0 .583-.086 1.164-.255 1.727-.094.311-.031.647.168.903.198.256.515.403.833.385l.254-.015c3.309 0 6 2.691 6 6 0 1.624-.641 3.146-1.805 4.286-.192.188-.301.445-.301.714s.108.526.301.714c1.164 1.14 1.805 2.662 1.805 4.286 0 3.309-2.691 6-6 6-1.104 0-2.188-.31-3.138-.895-.242-.148-.538-.189-.811-.106-.273.082-.499.276-.62.534-.984 2.107-3.116 3.467-5.431 3.467-.332 0-.66-.032-.984-.086.082-2.345 1.023-4.539 2.691-6.207 1.746-1.746 4.066-2.707 6.535-2.707h.758v-2h-.758c-3.003 0-5.826 1.169-7.949 3.293-2.123 2.123-3.293 4.946-3.293 7.949v21.758h-4v-9h-2v9h-2v-19.395c0-1.687-.554-3.291-1.529-4.605z"/><path d="m35 19c.019 0 .037 0 .056-.001.283-.016.548-.152.726-.374l4-5-1.562-1.249-3.302 4.127-3.21-3.21-1.414 1.414 4 4c.186.188.441.293.706.293z"/><path d="m32 41h2v9h-2z"/></g></g></svg>