<?xml version="1.0" encoding="iso-8859-1"?>
<!-- Generator: Adobe Illustrator 19.0.0, SVG Export Plug-In . SVG Version: 6.00 Build 0)  -->
<svg version="1.1" id="Capa_1" xmlns="http://www.w3.org/2000/svg" xmlns:xlink="http://www.w3.org/1999/xlink" x="0px" y="0px"
	 viewBox="0 0 512 512" style="enable-background:new 0 0 512 512;" xml:space="preserve">
<path style="fill:#03424F;" d="M186.441,125.023V95.875c0-5.904,4.804-10.708,10.709-10.708h117.7
	c5.905,0,10.709,4.804,10.709,10.708v29.148h30V95.875c0-22.446-18.262-40.708-40.709-40.708h-117.7
	c-22.447,0-40.709,18.262-40.709,40.708v29.148H186.441z"/>
<path style="fill:#26879C;" d="M256.001,55.167H197.15c-22.447,0-40.709,18.262-40.709,40.708v29.148h30V95.875
	c0-5.904,4.804-10.708,10.709-10.708h58.851V55.167z"/>
<path style="fill:#DE513C;" d="M467,120.521H45c-24.813,0-45,20.187-45,45v246.313c0,24.813,20.187,45,45,45h422
	c24.813,0,45-20.187,45-45V165.521C512,140.707,491.813,120.521,467,120.521z"/>
<path style="fill:#FC6249;" d="M256,120.521H45c-24.813,0-45,20.187-45,45v246.313c0,24.813,20.187,45,45,45h211V120.521z"/>
<path style="fill:#96D1D9;" d="M256,175.004c-63.398,0-114.975,51.579-114.975,114.976S192.602,404.956,256,404.956
	s114.975-51.578,114.975-114.975S319.398,175.004,256,175.004z"/>
<path style="fill:#F4F2E6;" d="M256,175.004c-63.398,0-114.975,51.579-114.975,114.976S192.602,404.956,256,404.956V175.004z"/>
<path style="fill:#DE513C;" d="M295.772,274.98H271v-24.772c0-8.284-6.716-15-15-15s-15,6.716-15,15v24.772h-24.772
	c-8.284,0-15,6.716-15,15s6.716,15,15,15H241v24.772c0,8.284,6.716,15,15,15s15-6.716,15-15V304.98h24.772c8.284,0,15-6.716,15-15
	S304.057,274.98,295.772,274.98z"/>
<path style="fill:#FC6249;" d="M256,235.208c-8.284,0-15,6.716-15,15v24.772h-24.772c-8.284,0-15,6.716-15,15s6.716,15,15,15H241
	v24.772c0,8.284,6.716,15,15,15V235.208z"/>
<g>
</g>
<g>
</g>
<g>
</g>
<g>
</g>
<g>
</g>
<g>
</g>
<g>
</g>
<g>
</g>
<g>
</g>
<g>
</g>
<g>
</g>
<g>
</g>
<g>
</g>
<g>
</g>
<g>
</g>
</svg>
