<svg height="480pt" viewBox="0 0 480 480" width="480pt" xmlns="http://www.w3.org/2000/svg"><path d="m56 32h96v368h-96zm0 0" fill="#9fccdb"/><path d="m104 296h40v96h-40zm0 0" fill="#a3724a"/><path d="m64 200h40v96h-40zm0 0" fill="#a3724a"/><path d="m40 424h400v56h-400zm0 0" fill="#ededeb"/><path d="m144 32h184v176h-184zm0 0" fill="#ededeb"/><path d="m232 88h64v112h-64zm0 0" fill="#a3724a"/><path d="m472 480h-464v-29.257812l8 8c17.671875 17.675781 46.328125 17.675781 64 0 17.671875-17.671876 46.328125-17.671876 64 0 17.671875 17.675781 46.328125 17.675781 64 0 17.671875-17.671876 46.328125-17.671876 64 0 17.671875 17.675781 46.328125 17.675781 64 0 17.671875-17.671876 46.328125-17.671876 64 0 17.671875 17.675781 46.328125 17.675781 64 0l8-8zm0 0" fill="#53a1cc"/><path d="m40 400h400v32h-400zm0 0" fill="#c6c6c1"/><path d="m144 224h280v176h-280zm0 0" fill="#ededeb"/><path d="m144 383.59375v16.40625h280v-127.855469c-77.574219 68.511719-176.5625 107.910157-280 111.449219zm0 0" fill="#ddddd9"/><path d="m288 280h64v112h-64zm0 0" fill="#a3724a"/><path d="m288 354.464844v37.535156h64v-68.078125c-20.488281 11.863281-41.890625 22.078125-64 30.542969zm0 0" fill="#8c603e"/><path d="m144 208h184v-120.441406c-10.351562 7.234375-21.019531 14.027344-32 20.378906-12.710938 7.359375-18.535156 22.101562-32 28.207031-8.113281 3.671875-23.640625-.878906-32 2.3125-28.445312 10.882813-57.933594 18.8125-88 23.664063" fill="#ddddd9"/><path d="m232 138.464844v69.535156h64v-100.078125c-20.488281 11.863281-41.890625 22.078125-64 30.542969zm0 0" fill="#8c603e"/><path d="m184 152h264v56h-264zm0 0" fill="#9fccdb"/><path d="m271.542969 152c-19.066407 29.898438-52.078125 48-87.542969 48v8h104v-56zm0 0" fill="#91bbc6"/><path d="m272 152h88v48h-88zm0 0" fill="#71a2af"/><path d="m359.542969 152c-19.066407 29.898438-52.078125 48-87.542969 48v8h88v-56zm0 0" fill="#64939b"/><path d="m447.542969 152c-19.066407 29.898438-52.078125 48-87.542969 48v8h88v-56zm0 0" fill="#91bbc6"/><path d="m144 32h184v16h-184zm0 0" fill="#c6c6c1"/><path d="m32 400v-392h320v32h-288v360zm0 0" fill="#7c7c7c"/><path d="m144 224h280v16h-280zm0 0" fill="#c6c6c1"/><path d="m144 200v32h272v168h32v-200zm0 0" fill="#7c7c7c"/><path d="m8 392h464v32h-464zm0 0" fill="#565655"/><path d="m472 384h-16v-232c0-4.417969-3.582031-8-8-8h-112v-96h16c4.417969 0 8-3.582031 8-8v-32c0-4.417969-3.582031-8-8-8h-320c-4.417969 0-8 3.582031-8 8v376h-16c-4.417969 0-8 3.582031-8 8v32c0 4.417969 3.582031 8 8 8h24v28.222656c-3.832031-1.769531-7.328125-4.183594-10.34375-7.132812l-8-8-11.3125 11.308594 8 8c20.808594 20.769531 54.503906 20.769531 75.3125 0 14.550781-14.546876 38.136719-14.546876 52.6875 0 20.808594 20.769531 54.503906 20.769531 75.3125 0 14.550781-14.546876 38.136719-14.546876 52.6875 0 20.808594 20.769531 54.503906 20.769531 75.3125 0 14.550781-14.546876 38.136719-14.546876 52.6875 0 20.808594 20.769531 54.503906 20.769531 75.3125 0l8-8-11.3125-11.308594-8 8c-3.015625 2.949218-6.511719 5.363281-10.34375 7.132812v-28.222656h24c4.417969 0 8-3.582031 8-8v-32c0-4.417969-3.582031-8-8-8zm-112 0v-104c0-4.417969-3.582031-8-8-8h-64c-4.417969 0-8 3.582031-8 8v104h-128v-144h256v144zm-16 0h-48v-96h48zm-232 0v-16h24v16zm-40 0v-80h24v80zm16-320c-4.417969 0-8 3.582031-8 8v24h16v-16h16v8h16v-16c0-4.417969-3.582031-8-8-8h-8v-16h24v144h-64v-144h24v16zm48 288h-24v-16h24zm-64-144h24v16h-24zm64 112h-24v-16h24zm-64-80h24v16h-24zm0 32h24v16h-24zm40 16v-80h24v80zm304-64h-256v-16h280v176h-16v-152c0-4.417969-3.582031-8-8-8zm-136-32v-32h72v32zm8-48h-48v-48h48zm-24 16v32h-72v-32zm176 32h-72v-32h72zm-120-48h-16v-56c0-4.417969-3.582031-8-8-8h-64c-4.417969 0-8 3.582031-8 8v56h-40c-4.417969 0-8 3.582031-8 8v40h-24v-144h168zm-280-128h304v16h-280c-4.417969 0-8 3.582031-8 8v344h-16zm392 448c-9.882812.015625-19.363281-3.90625-26.34375-10.894531-20.796875-20.800781-54.515625-20.800781-75.3125 0-14.558594 14.527343-38.128906 14.527343-52.6875 0-20.796875-20.800781-54.515625-20.800781-75.3125 0-14.558594 14.527343-38.128906 14.527343-52.6875 0-20.796875-20.800781-54.515625-20.800781-75.3125 0-6.980469 6.988281-16.460938 10.910156-26.34375 10.894531v-32h384zm32-48h-448v-16h448zm0 0"/><path d="m80 104h16v16h-16zm0 0"/><path d="m112 96h16v16h-16zm0 0"/><path d="m80 128h16v16h-16zm0 0"/><path d="m248 288h16v24h-16zm0 0"/><path d="m376 288h16v24h-16zm0 0"/><path d="m192 96h16v24h-16zm0 0"/></svg>