<svg id="Layer_1" enable-background="new 0 0 256 256" height="512" viewBox="0 0 256 256" width="512" xmlns="http://www.w3.org/2000/svg"><g><g><path d="m210.5 248h-165c-5.523 0-10-4.477-10-10v-220c0-5.523 4.477-10 10-10h165c5.523 0 10 4.477 10 10v220c0 5.523-4.477 10-10 10z" fill="#f9cfcf"/></g><g><path d="m202 48.761h-148c-1.657 0-3-1.343-3-3v-19c0-1.657 1.343-3 3-3h148c1.657 0 3 1.343 3 3v19c0 1.657-1.343 3-3 3z" fill="#f9a7a7"/></g><g><path d="m197.811 82.798h-139.426c-4.024 0-7.287-3.262-7.287-7.287 0-4.024 3.262-7.287 7.287-7.287h139.426c4.024 0 7.287 3.262 7.287 7.287 0 4.025-3.262 7.287-7.287 7.287z" fill="#f9a7a7"/></g><g><path d="m197.811 107.506h-139.426c-4.024 0-7.287-3.262-7.287-7.287 0-4.024 3.262-7.287 7.287-7.287h139.426c4.024 0 7.287 3.262 7.287 7.287 0 4.024-3.262 7.287-7.287 7.287z" fill="#f9a7a7"/></g><g><path d="m197.811 134.149h-139.426c-4.024 0-7.287-3.262-7.287-7.287 0-4.024 3.262-7.287 7.287-7.287h139.426c4.024 0 7.287 3.262 7.287 7.287 0 4.024-3.262 7.287-7.287 7.287z" fill="#f9a7a7"/></g><g><path d="m210.5 250h-165c-6.617 0-12-5.383-12-12v-220c0-6.617 5.383-12 12-12h165c6.617 0 12 5.383 12 12v220c0 6.617-5.383 12-12 12zm-165-240c-4.411 0-8 3.589-8 8v220c0 4.411 3.589 8 8 8h165c4.411 0 8-3.589 8-8v-220c0-4.411-3.589-8-8-8z" fill="#3762cc"/></g><g><path d="m197.713 160.736h-139.426c-4.024 0-7.287-3.262-7.287-7.287 0-4.024 3.262-7.287 7.287-7.287h139.426c4.024 0 7.287 3.262 7.287 7.287 0 4.025-3.262 7.287-7.287 7.287z" fill="#f9a7a7"/></g><g><path d="m197.713 187.324h-139.426c-4.024 0-7.287-3.262-7.287-7.287 0-4.024 3.262-7.287 7.287-7.287h139.426c4.024 0 7.287 3.262 7.287 7.287 0 4.025-3.262 7.287-7.287 7.287z" fill="#f9a7a7"/></g><g><path d="m119.752 125.969h16.496v23.173h-16.496z" fill="#6bdddd"/></g><g><path d="m136.248 151.143h-16.496c-1.104 0-2-.896-2-2v-23.173c0-1.104.896-2 2-2h16.496c1.104 0 2 .896 2 2v23.173c0 1.104-.895 2-2 2zm-14.496-4h12.496v-19.173h-12.496z" fill="#3762cc"/></g><g><path d="m139.508 128.207h-22.82c-1.345 0-2.435-1.09-2.435-2.435v-3.652c0-1.345 1.09-2.435 2.435-2.435h22.82c1.345 0 2.435 1.09 2.435 2.435v3.652c0 1.345-1.09 2.435-2.435 2.435z" fill="#a4c9ff"/></g><g><path d="m139.509 130.207h-22.821c-2.445 0-4.435-1.99-4.435-4.436v-3.651c0-2.445 1.989-4.435 4.435-4.435h22.821c2.445 0 4.435 1.989 4.435 4.435v3.651c-.001 2.446-1.99 4.436-4.435 4.436zm-22.821-8.521c-.24 0-.435.195-.435.435v3.651c0 .24.195.436.435.436h22.821c.239 0 .435-.195.435-.436v-3.651c0-.239-.195-.435-.435-.435z" fill="#3762cc"/></g><g><circle cx="128" cy="183.908" fill="#a4c9ff" r="49.759"/></g><g><circle cx="128" cy="183.908" fill="#4671c6" r="38.047"/></g><g><path d="m128 235.667c-28.54 0-51.759-23.22-51.759-51.76s23.219-51.759 51.759-51.759 51.759 23.219 51.759 51.759-23.219 51.76-51.759 51.76zm0-99.519c-26.334 0-47.759 21.425-47.759 47.759 0 26.335 21.424 47.76 47.759 47.76 26.334 0 47.759-21.425 47.759-47.76 0-26.334-21.425-47.759-47.759-47.759z" fill="#3762cc"/></g><g><path d="m128 223.955c-22.082 0-40.047-17.966-40.047-40.048s17.965-40.047 40.047-40.047 40.048 17.965 40.048 40.047-17.966 40.048-40.048 40.048zm0-76.095c-19.876 0-36.047 16.171-36.047 36.047 0 19.877 16.171 36.048 36.047 36.048 19.877 0 36.048-16.171 36.048-36.048 0-19.876-16.171-36.047-36.048-36.047z" fill="#3762cc"/></g><g><path d="m136.564 183.908 12.19-12.19c2.338-2.338 2.338-6.128.001-8.466-2.338-2.337-6.128-2.338-8.466 0l-12.19 12.19-12.19-12.19c-2.338-2.338-6.128-2.338-8.467 0-2.338 2.338-2.338 6.128.001 8.466l12.19 12.19-12.19 12.19c-2.338 2.338-2.338 6.128-.001 8.466 1.169 1.169 2.701 1.753 4.233 1.753s3.064-.585 4.233-1.753l12.19-12.19 12.19 12.19c1.168 1.169 2.701 1.753 4.233 1.753s3.064-.584 4.233-1.753c2.338-2.338 2.338-6.128-.001-8.466z" fill="#f9a7a7"/></g></g></svg>