<?xml version="1.0" encoding="iso-8859-1"?>
<!-- Generator: Adobe Illustrator 19.0.0, SVG Export Plug-In . SVG Version: 6.00 Build 0)  -->
<svg version="1.1" id="Capa_1" xmlns="http://www.w3.org/2000/svg" xmlns:xlink="http://www.w3.org/1999/xlink" x="0px" y="0px"
	 viewBox="0 0 490.667 490.667" style="enable-background:new 0 0 490.667 490.667;" xml:space="preserve">
<circle style="fill:#83D8F4;" cx="245.333" cy="245.333" r="245.333"/>
<g>
	<path style="fill:#FFFFFF;" d="M117.109,202.443l15.093,15.093c62.482-62.475,163.779-62.475,226.261,0l15.093-15.093
		c-70.814-70.816-185.628-70.818-256.444-0.004C117.112,202.44,117.111,202.441,117.109,202.443z"/>
	<path style="fill:#FFFFFF;" d="M154.827,240.16l15.083,15.083c41.683-41.59,109.165-41.59,150.848,0l15.083-15.083
		C285.827,190.242,204.84,190.242,154.827,240.16L154.827,240.16z"/>
	<path style="fill:#FFFFFF;" d="M192.544,277.877l15.083,15.083c20.827-20.82,54.587-20.82,75.413,0l15.083-15.083
		c-29.158-29.161-76.434-29.163-105.595-0.005c-0.002,0.002-0.004,0.004-0.005,0.005H192.544z"/>
	<circle style="fill:#FFFFFF;" cx="245.333" cy="320" r="21.333"/>
</g>
<g>
</g>
<g>
</g>
<g>
</g>
<g>
</g>
<g>
</g>
<g>
</g>
<g>
</g>
<g>
</g>
<g>
</g>
<g>
</g>
<g>
</g>
<g>
</g>
<g>
</g>
<g>
</g>
<g>
</g>
</svg>
